<svg width="1254" height="284" viewBox="320 250 1254 284" fill="none" xmlns="http://www.w3.org/2000/svg">
<!-- background removed for transparency -->
<path d="M430.668 297.79V372.97H530.271V440.517C507.374 440.517 494.781 432.121 483.714 421.436C471.502 409.987 461.579 399.683 447.841 399.683C441.735 399.683 434.103 403.499 430.668 408.46C430.668 440.898 430.668 461.887 430.668 494.325V525.237H369.99V494.325V288.631L327.622 257.72C408.526 257.72 467.56 257.72 554.188 257.72V326.03C522.895 326.03 526.837 314.581 509.282 297.408C494.399 282.525 475.7 284.052 455.092 284.052C445.933 284.052 435.629 289.394 430.668 297.79Z" fill="black"/>
<path d="M958.113 361.719L948.325 380.595V496.182C948.325 506.436 953.685 508.999 960.21 508.999C970.464 508.999 985.145 498.512 994.001 490.356C1006.12 478.937 1015.21 471.48 1032.22 468.917V524.846H911.039V506.203V380.595L901.484 361.719C920.361 361.719 939.237 361.719 958.113 361.719Z" fill="black"/>
<path d="M1083.55 403.439V506.209V524.852C1066.31 524.852 1068.17 524.852 1050.93 524.852V506.209V427.442V403.439H1083.55ZM1067.47 361.958C1077.96 361.958 1086.35 369.182 1086.35 378.504C1086.35 387.826 1077.96 395.516 1067.47 395.516C1056.75 395.516 1048.13 387.826 1048.13 378.504C1048.13 369.182 1056.75 361.958 1067.47 361.958Z" fill="black"/>
<path d="M1157.59 403.439L1148.97 422.082L1179.03 502.481L1195.11 461.233C1199.31 449.814 1198.84 440.958 1190.92 431.637C1184.39 423.947 1179.03 413.926 1178.8 403.439C1207.46 403.439 1193.48 403.439 1228.9 403.439L1182.76 524.852H1153.4L1107.49 403.439C1122.41 403.439 1142.21 403.439 1157.59 403.439Z" fill="black"/>
<path d="M1287.67 403.439V506.209V524.852C1270.43 524.852 1272.29 524.852 1255.05 524.852V506.209V427.442V403.439H1287.67ZM1271.59 361.958C1282.08 361.958 1290.47 369.182 1290.47 378.504C1290.47 387.826 1282.08 395.516 1271.59 395.516C1260.87 395.516 1252.25 387.826 1252.25 378.504C1252.25 369.182 1260.87 361.958 1271.59 361.958Z" fill="black"/>
<path d="M1327.19 427.442L1317.86 403.439H1360.04C1360.04 423.48 1360.04 415.557 1360.04 435.832C1371 415.79 1391.5 403.439 1407.12 403.439C1422.73 403.439 1433.92 410.663 1433.92 428.374V506.209V524.852C1416.44 524.852 1418.54 524.852 1401.29 524.852V506.209V441.89C1401.29 415.79 1371 428.374 1360.04 447.017V506.209V525.085C1342.57 525.085 1344.2 525.085 1327.19 525.085V506.209C1327.19 470.321 1327.19 452.61 1327.19 427.442Z" fill="black"/>
<path d="M638.194 525.189V359.831V325.968C609.954 325.968 584.509 325.968 584.509 325.968V335.764L584.767 488.819V525.189H638.194ZM611.862 258.101C629.035 258.101 642.774 269.931 642.774 285.196C642.774 300.461 629.035 313.054 611.862 313.054C594.308 313.054 580.188 300.461 580.188 285.196C580.188 269.931 594.308 258.101 611.862 258.101Z" fill="black"/>
<path d="M1524.86 410.823C1512.47 389.278 1493.56 376.879 1482.38 383.383C1471.41 389.481 1472.63 412.246 1485.03 433.792C1497.42 455.338 1516.53 467.737 1527.51 461.232C1538.48 455.134 1537.26 432.369 1524.86 410.823ZM1451.89 422.409C1451.89 392.936 1475.47 369.358 1505.15 369.358C1514.09 369.358 1522.63 371.594 1530.15 375.456C1533.4 374.643 1532.79 367.529 1527.71 361.431H1556.57C1556.57 371.187 1548.85 379.724 1539.09 381.757C1550.68 391.513 1558 405.945 1558 422.409C1558 451.679 1534.42 475.257 1505.15 475.257C1498.64 475.257 1492.34 474.241 1486.65 472.208L1483.81 476.883C1478.93 485.827 1482.38 493.551 1490.31 493.551C1503.93 493.551 1522.43 483.794 1537.06 483.794C1565.31 483.794 1566.13 508.999 1566.13 524.65H1558C1558 512.657 1544.78 511.031 1529.95 514.08C1515.51 517.129 1499.46 524.65 1488.48 524.65C1471 525.26 1461.65 516.316 1460.63 504.324C1459.41 489.892 1467.54 479.323 1477.1 467.533C1461.85 457.98 1451.89 441.516 1451.89 422.409Z" fill="black"/>
<path d="M788.217 338.569C767.921 303.301 736.979 283.006 718.68 293.653C700.714 303.634 702.71 340.898 723.005 376.165C743.301 411.432 774.576 431.728 792.542 421.081C810.508 411.1 808.512 373.836 788.217 338.569ZM668.773 357.533C668.773 309.29 707.368 270.695 755.944 270.695C770.583 270.695 784.557 274.355 796.867 280.677C802.191 279.346 801.193 267.701 792.875 257.72H840.12C840.12 273.69 827.477 287.664 811.507 290.991C830.471 306.961 842.449 330.584 842.449 357.533C842.449 405.444 803.854 444.038 755.944 444.038C745.297 444.038 734.983 442.375 725.667 439.047L721.009 446.7C713.024 461.339 718.68 473.982 731.656 473.982C753.948 473.982 784.224 458.012 808.179 458.012C854.426 458.012 855.757 499.268 855.757 524.887H842.449C842.449 505.257 820.823 502.595 796.535 507.586C772.912 512.577 746.628 524.887 728.661 524.887C700.048 525.885 684.744 511.246 683.08 491.616C681.084 467.993 694.392 450.692 710.03 431.395C685.076 415.758 668.773 388.808 668.773 357.533Z" fill="black"/>
</svg>
