<svg width="1846" height="531" viewBox="130 130 1540 280" fill="none" xmlns="http://www.w3.org/2000/svg">
<path d="M385.465 312.326V285.589C385.465 249.329 384.367 229.551 358.362 201.714C340.049 182.669 327.962 163.623 327.962 136.886C363.856 136.886 374.111 136.886 410.371 136.886V393.27H371.547L228.705 200.616V245.666C228.705 281.194 229.803 300.972 255.808 328.808C273.755 347.854 286.208 366.899 286.208 393.637C249.582 393.637 239.692 393.637 203.432 393.637C203.432 317.82 203.432 242.37 203.432 166.553L188.416 137.252H253.977L385.465 312.326Z" fill="white"/>
<path d="M457.811 272.037V202.447C490.775 202.447 523.006 202.447 555.97 202.447C584.172 202.447 606.881 225.155 606.881 253.358V363.969L622.264 393.27H555.97V355.545C543.883 378.62 514.216 393.27 491.141 393.27C438.399 393.27 418.621 335.401 468.067 299.141C484.915 287.054 510.553 272.037 533.262 259.584C550.11 250.428 555.97 241.271 555.97 230.649C555.97 219.661 547.546 215.266 540.587 215.266C533.994 215.266 527.035 218.196 523.006 228.452C512.751 253.724 487.479 272.037 457.811 272.037ZM555.97 338.331V261.049C534.36 277.531 494.438 309.396 496.269 338.331C499.199 369.83 542.052 362.138 555.97 338.331Z" fill="white"/>
<path d="M653.385 240.172L638.368 210.505L704.662 202.447C704.662 231.748 704.662 220.76 704.662 250.428C714.551 221.493 746.049 202.447 779.379 202.447H810.878C810.878 225.522 810.878 248.962 810.878 272.037C790.001 272.037 770.589 262.514 757.77 247.131C739.457 225.888 709.789 243.469 704.662 278.63V363.969L720.045 393.27C692.941 393.27 665.471 393.27 638.368 393.27L653.385 363.969C653.385 310.495 653.385 275.7 653.385 240.172Z" fill="white"/>
<path d="M840.886 272.037V202.447C873.85 202.447 906.081 202.447 939.045 202.447C967.247 202.447 989.955 225.155 989.955 253.358V363.969L1005.34 393.27H939.045V355.545C926.958 378.62 897.291 393.27 874.216 393.27C821.474 393.27 801.696 335.401 851.141 299.141C867.989 287.054 893.628 272.037 916.336 259.584C933.184 250.428 939.045 241.271 939.045 230.649C939.045 219.661 930.621 215.266 923.662 215.266C917.069 215.266 910.11 218.196 906.081 228.452C895.826 253.724 870.553 272.037 840.886 272.037ZM939.045 338.331V261.049C917.435 277.531 877.512 309.396 879.344 338.331C882.274 369.83 925.127 362.138 939.045 338.331Z" fill="white"/>
<path d="M1116.93 200.375L1105.36 222.696V359.376C1105.36 371.501 1111.7 374.532 1119.41 374.532C1131.54 374.532 1148.9 362.132 1159.37 352.487C1173.7 338.984 1184.45 330.166 1204.56 327.135V393.27H1049.97L1061.27 371.225V222.696L1049.97 200.375C1072.29 200.375 1094.61 200.375 1116.93 200.375Z" fill="white"/>
<path d="M1265.33 249.701V371.225L1276.91 393.27C1256.52 393.27 1235.85 393.27 1215.46 393.27L1226.76 371.225V278.085L1215.46 255.764L1265.33 249.701ZM1246.32 200.651C1258.72 200.651 1268.64 209.194 1268.64 220.216C1268.64 231.239 1258.72 240.332 1246.32 240.332C1233.64 240.332 1223.45 231.239 1223.45 220.216C1223.45 209.194 1233.64 200.651 1246.32 200.651Z" fill="white"/>
<path d="M1341.86 249.701L1331.67 271.747L1367.22 366.816L1386.23 318.041C1391.19 304.539 1390.64 294.067 1381.27 283.045C1373.55 273.951 1367.22 262.102 1366.94 249.701C1400.83 249.701 1384.3 249.701 1426.19 249.701L1371.63 393.27H1336.9L1282.62 249.701C1300.25 249.701 1323.68 249.701 1341.86 249.701Z" fill="white"/>
<path d="M1484.66 249.701V371.225L1496.23 393.27C1475.84 393.27 1455.17 393.27 1434.78 393.27L1446.08 371.225V278.085L1434.78 255.764L1484.66 249.701ZM1465.64 200.651C1478.04 200.651 1487.96 209.194 1487.96 220.216C1487.96 231.239 1478.04 240.332 1465.64 240.332C1452.97 240.332 1442.77 231.239 1442.77 220.216C1442.77 209.194 1452.97 200.651 1465.64 200.651Z" fill="white"/>
<path d="M1520.36 278.085L1509.33 255.764L1559.21 249.701C1559.21 273.4 1559.21 264.031 1559.21 288.005C1572.16 264.306 1596.41 249.701 1614.88 249.701C1633.34 249.701 1646.57 258.244 1646.57 279.187V371.225L1658.14 393.27C1637.47 393.27 1616.8 393.27 1596.41 393.27L1607.99 371.225V295.17C1607.99 264.306 1572.16 279.187 1559.21 301.232V371.225L1570.78 393.546C1550.12 393.546 1529.45 393.546 1509.33 393.546L1520.36 371.225C1520.36 328.788 1520.36 307.846 1520.36 278.085Z" fill="white"/>
</svg>
